<svg xmlns="http://www.w3.org/2000/svg" width="15" height="14" fill="none"><path fill="#2D3440" fill-rule="evenodd" d="M.5.7746A.6667.6667 0 0 1 1.1667.108h2.3177a.6667.6667 0 0 1 .6537.5359l.4726 2.3613h9.3035a.6668.6668 0 0 1 .6549.7916L13.642 8.658l-.001.005a1.826 1.826 0 0 1-1.8185 1.4697H6.2018a1.8256 1.8256 0 0 1-1.8183-1.4691l-.0001-.0006-.9674-4.8333a.664.664 0 0 1-.0106-.0531l-.4675-2.3354H1.1667A.6667.6667 0 0 1 .5.7746Zm5.303 10.3431c-.6879 0-1.2456.5577-1.2456 1.2457 0 .6879.5577 1.2457 1.2457 1.2457.688 0 1.2457-.5578 1.2457-1.2457 0-.688-.5577-1.2457-1.2457-1.2457Zm6.3734 0c-.688 0-1.2457.5577-1.2457 1.2457 0 .6879.5577 1.2457 1.2457 1.2457.688 0 1.2457-.5578 1.2457-1.2457 0-.688-.5577-1.2457-1.2457-1.2457Z" clip-rule="evenodd"/></svg>