<?xml version="1.0" encoding="UTF-8"?>
<svg width="16px" height="16px" viewBox="0 0 16 16" xmlns="http://www.w3.org/2000/svg" xmlns:xlink="http://www.w3.org/1999/xlink" version="1.1">
 <!-- Generated by Pixelmator Pro 2.1.3 -->
 <path id="Путь" d="M1.179 1.095 C0.811 1.095 0.512 1.393 0.511 1.761 0.511 2.129 0.809 2.428 1.177 2.429 L2.948 2.432 3.411 4.768 C3.414 4.786 3.418 4.804 3.422 4.821 L4.38 9.656 4.38 9.657 C4.463 10.077 4.691 10.455 5.024 10.724 5.356 10.992 5.77 11.135 6.196 11.13 L11.817 11.14 C12.243 11.147 12.658 11.005 12.99 10.739 13.324 10.471 13.554 10.093 13.638 9.673 L13.639 9.668 14.575 4.809 C14.613 4.614 14.561 4.412 14.435 4.259 14.308 4.105 14.12 4.016 13.921 4.016 L4.618 3.999 4.15 1.637 C4.088 1.325 3.815 1.1 3.497 1.1 Z M5.688 9.398 L4.882 5.333 13.113 5.348 12.33 9.413 C12.307 9.526 12.246 9.627 12.156 9.699 12.066 9.771 11.953 9.809 11.838 9.807 L11.838 9.806 11.825 9.806 6.193 9.796 6.193 9.796 6.18 9.796 C6.065 9.798 5.952 9.76 5.862 9.687 5.772 9.614 5.711 9.512 5.689 9.399 Z M4.548 13.357 C4.549 12.669 5.108 12.112 5.796 12.114 6.484 12.115 7.04 12.674 7.039 13.362 7.038 14.05 6.479 14.606 5.791 14.605 5.103 14.604 4.546 14.045 4.548 13.357 Z M10.921 13.369 C10.922 12.681 11.481 12.124 12.169 12.125 12.857 12.127 13.414 12.685 13.412 13.373 13.411 14.061 12.852 14.618 12.164 14.617 11.476 14.615 10.92 14.057 10.921 13.369 Z" fill="#2d3440" fill-opacity="1" stroke="none"/>
</svg>
