<?xml version="1.0" encoding="UTF-8"?>
<svg width="16px" height="16px" viewBox="0 0 16 16" xmlns="http://www.w3.org/2000/svg" xmlns:xlink="http://www.w3.org/1999/xlink" version="1.1">
 <!-- Generated by Pixelmator Pro 2.1.3 -->
 <path id="Путь" d="M2.663 7.188 C2.663 4.611 4.753 2.521 7.33 2.521 9.907 2.521 11.997 4.611 11.997 7.188 11.997 8.445 11.499 9.586 10.691 10.425 10.668 10.443 10.646 10.462 10.625 10.483 10.604 10.504 10.585 10.526 10.568 10.549 9.728 11.357 8.587 11.855 7.33 11.855 4.753 11.855 2.663 9.765 2.663 7.188 Z M11.075 11.876 C10.049 12.697 8.747 13.188 7.33 13.188 4.016 13.188 1.33 10.502 1.33 7.188 1.33 3.874 4.016 1.188 7.33 1.188 10.644 1.188 13.33 3.874 13.33 7.188 13.33 8.605 12.839 9.907 12.018 10.933 L14.468 13.383 C14.728 13.644 14.728 14.066 14.468 14.326 14.208 14.586 13.785 14.586 13.525 14.326 Z" fill="#2d3440" fill-opacity="1" stroke="none"/>
</svg>
